<svg id="Layer_1" data-name="Layer 1" xmlns="http://www.w3.org/2000/svg" viewBox="0 0 123.12 23.63"><defs><style>.cls-1,.cls-2{fill:#fff;}.cls-1{fill-rule:evenodd;}</style></defs><path class="cls-1" d="M242.88,200.67v-23h19.71a11.52,11.52,0,0,1,7.5,2.41,9.68,9.68,0,0,1,2.65,6.86,8.71,8.71,0,0,1-2.65,6.52,12.46,12.46,0,0,1-7.5,2.4h-8.24v4.81Zm11.47-16.13v4.85h4.27c1.18,0,2.84-1.08,2.84-2.3a3.07,3.07,0,0,0-2.84-2.55ZM206,200.67v-23h11.47v14.91h10.1v8.09Zm-27.61-3,1,3H191l-7.5-23H164.77l-7.5,23h11.62l1-3Zm-2-6.18-2.25-6.86-2.26,6.86Zm20.84,2.84c2.65,0,4.81,1.57,4.81,3.53s-2.16,3.49-4.81,3.49-4.85-1.57-4.85-3.49S194.53,194.29,197.23,194.29Zm37.51,0c2.65,0,4.81,1.57,4.81,3.53s-2.16,3.49-4.81,3.49-4.85-1.57-4.85-3.49S232,194.29,234.74,194.29Zm40.85,0c2.64,0,4.8,1.57,4.8,3.53s-2.16,3.49-4.8,3.49-4.86-1.57-4.86-3.49,2.16-3.53,4.86-3.53" transform="translate(-157.27 -177.67)"/><path class="cls-2" d="M277.51,178.42a1.71,1.71,0,1,1-1.7,1.71A1.7,1.7,0,0,1,277.51,178.42Zm1.41,1.71a1.41,1.41,0,1,0-1.41,1.43A1.42,1.42,0,0,0,278.92,180.13Zm-2.09-1h.77c.45,0,.69.19.69.58a.53.53,0,0,1-.54.55l.57.86H278l-.55-.83h-.32v.83h-.31Zm.63.88c.28,0,.52,0,.52-.31s-.22-.3-.43-.3h-.41V180Z" transform="translate(-157.27 -177.67)"/></svg>